REM DIRINDEX 1\2,1\3,1\4
REM DIRNAME folder01,folder02,folder03,folder04
TITLE ""
FILE "020 020_TOEFL_3900.mp3" MP3
  TRACK 01 AUDIO
    TITLE "2:cjc151_0842"
    INDEX 01 00:00:00
  TRACK 02 AUDIO
    TITLE "0:"
    INDEX 01 00:01:05
  TRACK 03 AUDIO
    TITLE "3:cjc151_0843"
    INDEX 01 00:02:59
  TRACK 04 AUDIO
    TITLE "0:"
    INDEX 01 00:06:71
  TRACK 05 AUDIO
    TITLE "2:cjc151_0844"
    INDEX 01 00:08:50
  TRACK 06 AUDIO
    TITLE "0:"
    INDEX 01 00:09:55
  TRACK 07 AUDIO
    TITLE "3:cjc151_0845"
    INDEX 01 00:11:33
  TRACK 08 AUDIO
    TITLE "0:"
    INDEX 01 00:15:34
  TRACK 09 AUDIO
    TITLE "2:cjc151_0846"
    INDEX 01 00:17:14
  TRACK 10 AUDIO
    TITLE "0:"
    INDEX 01 00:18:21
  TRACK 11 AUDIO
    TITLE "3:cjc151_0847"
    INDEX 01 00:19:69
  TRACK 12 AUDIO
    TITLE "0:"
    INDEX 01 00:23:42
  TRACK 13 AUDIO
    TITLE "2:cjc151_0848"
    INDEX 01 00:25:21
  TRACK 14 AUDIO
    TITLE "0:"
    INDEX 01 00:26:17
  TRACK 15 AUDIO
    TITLE "3:cjc151_0849"
    INDEX 01 00:28:00
  TRACK 16 AUDIO
    TITLE "0:"
    INDEX 01 00:31:35
  TRACK 17 AUDIO
    TITLE "2:cjc151_0850"
    INDEX 01 00:33:13
  TRACK 18 AUDIO
    TITLE "0:"
    INDEX 01 00:34:24
  TRACK 19 AUDIO
    TITLE "3:cjc151_0851"
    INDEX 01 00:36:11
  TRACK 20 AUDIO
    TITLE "0:"
    INDEX 01 00:39:56
  TRACK 21 AUDIO
    TITLE "2:cjc151_0852"
    INDEX 01 00:41:36
  TRACK 22 AUDIO
    TITLE "0:"
    INDEX 01 00:42:70
  TRACK 23 AUDIO
    TITLE "3:cjc151_0853"
    INDEX 01 00:44:48
  TRACK 24 AUDIO
    TITLE "0:"
    INDEX 01 00:48:34
  TRACK 25 AUDIO
    TITLE "2:cjc151_0854"
    INDEX 01 00:50:13
  TRACK 26 AUDIO
    TITLE "0:"
    INDEX 01 00:51:26
  TRACK 27 AUDIO
    TITLE "3:cjc151_0855"
    INDEX 01 00:53:04
  TRACK 28 AUDIO
    TITLE "0:"
    INDEX 01 00:56:57
  TRACK 29 AUDIO
    TITLE "2:cjc151_0856"
    INDEX 01 00:58:36
  TRACK 30 AUDIO
    TITLE "0:"
    INDEX 01 00:59:26
  TRACK 31 AUDIO
    TITLE "3:cjc151_0857"
    INDEX 01 01:01:11
  TRACK 32 AUDIO
    TITLE "0:"
    INDEX 01 01:05:48
  TRACK 33 AUDIO
    TITLE "2:cjc151_0858"
    INDEX 01 01:07:25
  TRACK 34 AUDIO
    TITLE "0:"
    INDEX 01 01:08:23
  TRACK 35 AUDIO
    TITLE "3:cjc151_0859"
    INDEX 01 01:10:00
  TRACK 36 AUDIO
    TITLE "0:"
    INDEX 01 01:13:32
  TRACK 37 AUDIO
    TITLE "2:cjc151_0860"
    INDEX 01 01:15:13
  TRACK 38 AUDIO
    TITLE "0:"
    INDEX 01 01:16:12
  TRACK 39 AUDIO
    TITLE "3:cjc151_0861"
    INDEX 01 01:17:67
  TRACK 40 AUDIO
    TITLE "0:"
    INDEX 01 01:21:29
  TRACK 41 AUDIO
    TITLE "2:cjc151_0862"
    INDEX 01 01:23:09
  TRACK 42 AUDIO
    TITLE "0:"
    INDEX 01 01:24:20
  TRACK 43 AUDIO
    TITLE "3:cjc151_0863"
    INDEX 01 01:25:74
  TRACK 44 AUDIO
    TITLE "0:"
    INDEX 01 01:30:28
  TRACK 45 AUDIO
    TITLE "2:cjc151_0864"
    INDEX 01 01:32:08
  TRACK 46 AUDIO
    TITLE "0:"
    INDEX 01 01:33:13
  TRACK 47 AUDIO
    TITLE "3:cjc151_0865"
    INDEX 01 01:34:65
  TRACK 48 AUDIO
    TITLE "0:"
    INDEX 01 01:39:00
  TRACK 49 AUDIO
    TITLE "2:cjc151_0866"
    INDEX 01 01:40:54
  TRACK 50 AUDIO
    TITLE "0:"
    INDEX 01 01:41:48
  TRACK 51 AUDIO
    TITLE "3:cjc151_0867"
    INDEX 01 01:43:25
  TRACK 52 AUDIO
    TITLE "0:"
    INDEX 01 01:47:03
  TRACK 53 AUDIO
    TITLE "2:cjc151_0868"
    INDEX 01 01:48:61
  TRACK 54 AUDIO
    TITLE "0:"
    INDEX 01 01:49:65
  TRACK 55 AUDIO
    TITLE "3:cjc151_0869"
    INDEX 01 01:51:48
  TRACK 56 AUDIO
    TITLE "0:"
    INDEX 01 01:55:34
  TRACK 57 AUDIO
    TITLE "2:cjc151_0870"
    INDEX 01 01:57:15
  TRACK 58 AUDIO
    TITLE "0:"
    INDEX 01 01:58:32
  TRACK 59 AUDIO
    TITLE "3:cjc151_0871"
    INDEX 01 02:00:12
  TRACK 60 AUDIO
    TITLE "0:"
    INDEX 01 02:04:23
  TRACK 61 AUDIO
    TITLE "2:cjc151_0872"
    INDEX 01 02:06:05
  TRACK 62 AUDIO
    TITLE "0:"
    INDEX 01 02:07:00
  TRACK 63 AUDIO
    TITLE "3:cjc151_0873"
    INDEX 01 02:08:52
  TRACK 64 AUDIO
    TITLE "0:"
    INDEX 01 02:12:09
  TRACK 65 AUDIO
    TITLE "2:cjc151_0874"
    INDEX 01 02:13:63
  TRACK 66 AUDIO
    TITLE "0:"
    INDEX 01 02:14:65
  TRACK 67 AUDIO
    TITLE "3:cjc151_0875"
    INDEX 01 02:16:44
  TRACK 68 AUDIO
    TITLE "0:"
    INDEX 01 02:20:12
  TRACK 69 AUDIO
    TITLE "2:cjc151_0876"
    INDEX 01 02:21:69
  TRACK 70 AUDIO
    TITLE "0:"
    INDEX 01 02:23:15
  TRACK 71 AUDIO
    TITLE "3:cjc151_0877"
    INDEX 01 02:24:71
  TRACK 72 AUDIO
    TITLE "0:"
    INDEX 01 02:29:31
  TRACK 73 AUDIO
    TITLE "2:cjc151_0878"
    INDEX 01 02:31:12
  TRACK 74 AUDIO
    TITLE "0:"
    INDEX 01 02:32:24
  TRACK 75 AUDIO
    TITLE "3:cjc151_0879"
    INDEX 01 02:34:03
  TRACK 76 AUDIO
    TITLE "0:"
    INDEX 01 02:37:60
  TRACK 77 AUDIO
    TITLE "2:cjc151_0880"
    INDEX 01 02:39:39
  TRACK 78 AUDIO
    TITLE "0:"
    INDEX 01 02:40:50
  TRACK 79 AUDIO
    TITLE "3:cjc151_0881"
    INDEX 01 02:42:30
  TRACK 80 AUDIO
    TITLE "0:"
    INDEX 01 02:47:09
  TRACK 81 AUDIO
    TITLE "2:cjc151_0882"
    INDEX 01 02:48:64
  TRACK 82 AUDIO
    TITLE "0:"
    INDEX 01 02:49:69
  TRACK 83 AUDIO
    TITLE "3:cjc151_0883"
    INDEX 01 02:51:46
  TRACK 84 AUDIO
    TITLE "0:"
    INDEX 01 02:55:11
  TRACK 85 AUDIO
    TITLE "2:cjc151_0884"
    INDEX 01 02:56:65
  TRACK 86 AUDIO
    TITLE "0:"
    INDEX 01 02:57:72
  TRACK 87 AUDIO
    TITLE "3:cjc151_0885"
    INDEX 01 02:59:54
  TRACK 88 AUDIO
    TITLE "0:"
    INDEX 01 03:03:42
